<svg width="200" height="200" viewBox="0 0 200 200" fill="none" xmlns="http://www.w3.org/2000/svg">
<path d="M100.004 0C155.226 0 200 44.7737 200 100.004C200 155.226 155.226 200 100.004 200C44.7737 200 0 155.226 0 100.004C0 44.7737 44.7737 0 100.004 0Z" fill="#F37569"/>
<path d="M155.905 17.0787C170.313 34.8512 178.16 57.043 178.128 79.9217C178.128 135.152 133.355 179.926 78.1323 179.926C57.419 179.926 38.1835 173.631 22.2151 162.847C31.5801 174.46 43.4294 183.826 56.8913 190.255C70.3533 196.685 85.0854 200.015 100.004 200C155.226 200 200 155.226 200 100.004C200 65.4791 182.506 35.0441 155.905 17.0787Z" fill="#D3655C"/>
<path d="M167.376 81.1759C157.255 75.9915 138.427 66.3498 107.641 68.211C99.7258 68.2084 92.0532 65.4807 85.9129 60.4865C84.4745 59.3221 83.1309 58.0453 81.8948 56.6681C108.944 39.8754 140.085 30.8341 171.922 30.5308C169.744 28.2739 167.462 26.1201 165.084 24.0764C134.179 25.5177 104.166 34.8903 77.9327 51.2921C74.7046 45.9148 73.006 39.7582 73.02 33.4864C73.0307 25.8847 75.5322 18.4958 80.1416 12.451C84.751 6.40609 91.2143 2.03824 98.5422 0.0159912C92.6229 0.103861 86.8315 0.702974 81.2078 1.77339C76.5619 5.64948 72.8243 10.4991 70.2596 15.9792C67.6949 21.4592 66.3656 27.4359 66.3658 33.4864C66.3658 41.1311 68.4267 48.4723 72.3489 54.9267C63.7498 60.731 55.6605 67.257 48.1687 74.4338C39.7879 61.0806 32.3822 47.1396 26.0095 32.7196C24.348 34.5409 22.7583 36.4261 21.2406 38.3672C27.648 52.4887 35.031 66.1469 43.3359 79.2427C38.4079 84.3349 33.7803 89.7094 29.4764 95.3389C26.5063 90.5913 22.6042 86.4955 18.0059 83.2991C13.4077 80.1027 8.2089 77.8722 2.72399 76.7424C2.21274 78.8992 1.76541 81.072 1.39795 83.2767C6.44594 84.3094 11.2 86.4551 15.3139 89.5575C19.4278 92.6598 22.7979 96.6407 25.1788 101.21C17.7086 111.818 11.399 123.197 6.35861 135.152C7.46896 138.1 8.70713 140.983 10.0811 143.787C14.7315 131.475 20.761 119.73 28.0545 108.775C28.6616 111.171 29.0131 113.648 29.093 116.156C28.1344 146.99 38.3273 165.523 43.7992 175.492C44.2226 176.259 47.4099 181.587 50.669 186.995C54.2238 189.016 57.9143 190.83 61.7247 192.403C57.6547 185.723 53.6259 179.019 49.6386 172.289C44.4622 162.863 34.8285 145.337 35.7551 116.268C35.6361 111.366 34.6461 106.524 32.8314 101.969L33.6302 100.875C37.7893 95.316 42.2731 90.0079 47.0584 84.9782C55.7364 98.0613 65.319 110.521 75.7359 122.267C97.6896 147.056 123.186 168.464 151.4 185.797C153.509 184.519 155.578 183.185 157.583 181.763C128.858 164.496 102.936 142.946 80.7126 117.858C70.1959 105.997 60.5478 93.3934 51.8433 80.1454C59.3701 72.8193 67.5373 66.1813 76.2472 60.3107C80.2818 65.0428 85.3263 68.8098 91.0093 71.3344C96.3409 73.6947 102.114 74.8929 107.944 74.8492C136.973 73.0758 154.779 82.1983 164.341 87.0951C178.376 94.2845 192.683 109.59 198.65 116.412C199.129 113.528 199.489 110.596 199.712 107.625C192.283 99.6126 179.942 87.6063 167.376 81.1679" fill="#AB433C"/>
</svg>
